#!OML:ASF X:\für Bonn\!DataBase\2005_08_12_Daniel\c3d\Daniel.ASF
:FULLY-SPECIFIED
:DEGREES
108
root -2.98509 19.3397 0.306015 -18.246 84.9272 -373.05
lowerback 31.261 -1.18376 4.64047
upperback 2.96086 0.204024 -1.53504
thorax -12.9998 -0.0271188 -4.28712
lowerneck 0.349413 1.60632 -3.16357
upperneck 4.95008 2.33746 -2.30445
head 1.45952 1.09792 -0.158595
rclavicle 2.09718e-014 -3.18055e-015
rhumerus 0.205763 35.2922 -91.8065
rradius 70.6488
rwrist 1.8596
rhand -26.1333 23.0814
rfingers 7.12502
rthumb 0.417044 -6.89797
lclavicle 2.09718e-014 -3.18055e-015
lhumerus 1.74796 -30.743 86.2927
lradius 80.4212
lwrist 8.87686
lhand -18.3245 -12.4628
lfingers 7.12502
lthumb 7.95719 17.3675
rfemur -18.7445 3.54302 21.607
rtibia 26.9188
rfoot 12.2178 -11.4048
rtoes -17.7488
lfemur -19.3261 4.66834 -17.765
ltibia 44.9453
lfoot -17.2914 -5.83553
ltoes -17.2796
109
root -2.78971 19.1322 0.299571 -17.7844 85.0658 -372.703
lowerback 31.673 -1.26247 4.60687
upperback 3.07715 0.127588 -1.52374
thorax -13.0509 -0.0510064 -4.22671
lowerneck -0.00726117 1.60257 -3.0712
upperneck 5.02767 2.34356 -2.25433
head 1.54625 1.09777 -0.15442
rclavicle -1.59028e-015 1.47101e-014
rhumerus -0.804676 34.9251 -92.1854
rradius 68.7002
rwrist 2.40825
rhand -26.0899 22.4272
rfingers 7.12502
rthumb 0.45894 -7.55205
lclavicle -1.59028e-015 1.47101e-014
lhumerus 0.816151 -30.6025 86.5181
lradius 78.4088
lwrist 8.48276
lhand -17.9175 -11.4995
lfingers 7.12502
lthumb 8.34994 18.3154
rfemur -19.6849 4.32824 21.1255
rtibia 26.0561
rfoot 12.2434 -12.6292
rtoes -16.9697
lfemur -20.6051 4.21821 -17.7539
ltibia 44.0725
lfoot -19.7905 -5.47871
ltoes -18.9743
110
root -2.59614 18.9077 0.292439 -17.6186 85.2094 -372.75
lowerback 31.8433 -1.33626 4.58201
upperback 3.20708 0.0507604 -1.47521
thorax -12.9815 -0.0726953 -4.12885
lowerneck -0.238613 1.60502 -3.02491
upperneck 5.04448 2.35379 -2.24826
head 1.59223 1.10076 -0.157724
rclavicle 4.72114e-015 2.98177e-015
rhumerus -1.67688 34.6317 -92.4612
rradius 66.6146
rwrist 2.85602
rhand -26.1159 21.6667
rfingers 7.12502
rthumb 0.433846 -8.31265
lclavicle 4.72114e-015 2.98177e-015
lhumerus 0.0503919 -30.4417 86.7325
lradius 76.1161
lwrist 8.16096
lhand -17.5344 -10.5069
lfingers 7.12502
lthumb 8.71963 19.293
rfemur -20.8097 4.91054 20.6716
rtibia 25.5434
rfoot 12.1729 -13.8005
rtoes -15.1178
lfemur -22.0138 3.7797 -17.6891
ltibia 43.249
lfoot -22.2588 -5.19449
ltoes -20.5626
111
root -2.40349 18.6679 0.285451 -17.34 85.332 -372.569
lowerback 32.0493 -1.40024 4.53698
upperback 3.38512 -0.0152373 -1.43106
thorax -12.8707 -0.0845788 -4.0286
lowerneck -0.39746 1.60452 -3.08023
upperneck 4.99506 2.3525 -2.15961
head 1.60226 1.09938 -0.11979
rclavicle -6.11263e-015 -1.98785e-016
rhumerus -2.44407 34.284 -92.7325
rradius 64.4105
rwrist 3.15747
rhand -26.0578 20.903
rfingers 7.12502
rthumb 0.489912 -9.07616
lclavicle -6.11263e-015 -1.98785e-016
lhumerus -0.593471 -30.2741 86.9549
lradius 73.5965
lwrist 7.95703
lhand -17.1809 -9.58434
lfingers 7.12502
lthumb 9.06074 20.2011
rfemur -21.931 5.25775 20.2801
rtibia 25.506
rfoot 12.1115 -14.6211
rtoes -12.3076
lfemur -23.2865 3.40498 -17.6223
ltibia 42.4774
lfoot -24.2007 -4.9106
ltoes -20.9123
112
root -2.21135 18.4159 0.277427 -17.185 85.454 -372.286
lowerback 32.4305 -1.48139 4.48919
upperback 3.62016 -0.090158 -1.40399
thorax -12.7685 -0.0959917 -3.94158
lowerneck -0.429881 1.59838 -3.03392
upperneck 4.86395 2.33913 -2.17608
head 1.5667 1.09453 -0.133135
rclavicle -3.72721e-015 2.38542e-015
rhumerus -3.1401 33.8305 -93.0258
rradius 62.1103
rwrist 3.42926
rhand -25.9295 20.1206
rfingers 7.12502
rthumb 0.61385 -9.85828
lclavicle -3.72721e-015 2.38542e-015
lhumerus -1.14331 -30.0998 87.1548
lradius 70.812
lwrist 7.74324
lhand -16.7566 -8.92572
lfingers 7.12502
lthumb 9.47022 20.8415
rfemur -22.9733 5.18074 20.0379
rtibia 26.0336
rfoot 12.0829 -14.6506
rtoes -9.65726
lfemur -24.3764 3.03147 -17.5503
ltibia 41.7966
lfoot -25.3944 -4.53081
ltoes -20.139
113
root -2.02277 18.1566 0.271758 -17.3781 85.5792 -372.267
lowerback 32.7953 -1.56922 4.42796
upperback 3.90775 -0.174021 -1.37139
thorax -12.5984 -0.106084 -3.83705
lowerneck -0.381141 1.59478 -2.9594
upperneck 4.65077 2.32333 -2.21403
head 1.49152 1.09055 -0.159003
rclavicle -8.59744e-015 -5.76476e-015
rhumerus -3.71501 33.2632 -93.3162
rradius 59.8027
rwrist 3.55117
rhand -25.4855 19.2033
rfingers 7.12502
rthumb 1.04264 -10.7739
lclavicle -8.59744e-015 -5.76476e-015
lhumerus -1.70324 -29.8401 87.4177
lradius 67.8689
lwrist 7.41678
lhand -16.2773 -8.56673
lfingers 7.12502
lthumb 9.93268 21.1789
rfemur -24.1145 4.67724 20.0129
rtibia 27.2075
rfoot 11.7673 -13.5505
rtoes -8.56721
lfemur -25.4766 2.74305 -17.4594
ltibia 41.2813
lfoot -25.9923 -4.064
ltoes -18.5929
